# xmcd CD database file generated by OrangeCD 6.5
#
# Track frame offsets:
#	150
#	33181
#	65021
#	86918
#	102726
#	119061
#	131370
#	140602
#	160856
#
# Disc length: 2402 seconds
#
# Revision: 0
# Processed by: cddbd v1.5.2PL0 Copyright (c) Steve Scherf et al.
# Submitted via: OrangeCD 6.5
#
DISCID=84096009
DTITLE=Johnny Winter - Remembrance Volume 1
DYEAR=2015
DGENRE=
TTITLE0=Mean Town Blues
TTITLE1=Sound The Bell
TTITLE2=Killing Floor
TTITLE3=Mississippi Blues
TTITLE4=Run Rudolph Run
TTITLE5=The Crawl
TTITLE6=Wildwood Flower
TTITLE7=Wipe Out
TTITLE8=Come Back Baby
EXTD=
EXTT0=
EXTT1=
EXTT2=
EXTT3=
EXTT4=
EXTT5=
EXTT6=
EXTT7=
EXTT8=
PLAYORDER=
